<svg version="1.1" id="Layer_1" xmlns="http://www.w3.org/2000/svg" xmlns:xlink="http://www.w3.org/1999/xlink" x="0px" y="0px"
	 width="100%" viewBox="0 0 1024 1024" enable-background="new 0 0 1024 1024" xml:space="preserve">
<path fill="none" opacity="1.000000" stroke="#000000" stroke-linecap="round" stroke-linejoin="round" stroke-width="18.000000"
	d="
M715.250000,247.500000 
	C715.333313,249.333328 715.489258,251.166656 715.489563,253.000000 
	C715.501587,335.166656 715.500000,417.333344 715.500000,499.500000 
	C715.500000,508.311157 712.346313,511.762238 703.502686,511.429443 
	C689.314758,510.895569 675.156311,511.756012 660.999878,511.762695 
	C647.167114,511.769226 633.337524,512.515198 619.498657,512.039795 
	C608.838806,511.673553 598.122864,510.989838 587.511475,511.676880 
	C575.147888,512.477295 562.722351,512.320740 550.526123,511.573792 
	C537.370239,510.768066 526.567261,516.152710 515.000000,520.000000 
"/>
<path fill="none" opacity="1.000000" stroke="#000000" stroke-linecap="round" stroke-linejoin="round" stroke-width="18.000000"
	d="
M366.500000,217.000000 
	C367.380676,221.291229 367.528076,225.625473 367.525818,230.000015 
	C367.489410,301.333344 367.519897,372.666656 367.469452,443.999969 
	C367.464355,451.176117 366.132324,458.372894 368.000000,465.500000 
"/>
<path fill="none" opacity="1.000000" stroke="#000000" stroke-linecap="round" stroke-linejoin="round" stroke-width="18.000000"
	d="
M511.000000,517.000000 
	C495.982758,512.425415 480.668121,511.024994 464.993347,511.877930 
	C457.033356,512.311096 449.008026,512.226685 440.991974,511.603424 
	C433.863586,511.049133 426.702606,512.073364 419.491272,511.647644 
	C409.526031,511.059296 399.499603,511.557892 389.500092,511.487030 
	C372.666412,511.367706 355.833038,511.191010 339.000153,510.986908 
	C333.047974,510.914703 328.606689,506.944275 328.590210,500.999756 
	C328.571106,494.110779 327.233307,487.001862 330.932343,480.461731 
	C331.451508,479.543823 331.311127,478.287384 330.607178,476.943848 
	C328.679688,473.265137 328.453156,469.167511 328.456787,464.999969 
	C328.517395,395.500000 328.518982,326.000000 328.482941,256.500000 
	C328.476257,243.607468 331.600647,232.012482 342.032654,223.540207 
	C348.655975,218.161148 355.860809,213.809158 364.966736,216.130524 
	C366.044922,216.405396 366.973663,216.364349 367.451447,215.944733 
	C371.299530,212.565125 375.945831,213.131912 380.499359,212.980499 
	C394.021851,212.530853 407.567322,212.913223 420.982483,214.184830 
	C436.047363,215.612808 450.933746,218.478699 465.532806,222.891449 
	C481.702606,227.778961 496.945282,234.542511 511.596649,243.324402 
	C531.815796,230.220291 554.285400,222.904892 577.538452,218.189499 
	C590.303528,215.600922 603.393677,214.639404 616.485291,213.776886 
	C636.510742,212.457535 656.501953,213.472519 676.500793,213.037735 
	C684.411072,212.865768 688.656616,215.187180 688.568726,225.000610 
	C688.356750,248.665390 688.500000,272.333344 688.500000,296.000000 
	C688.500000,307.666656 688.561523,319.333771 688.478943,330.999847 
	C688.421204,339.167267 688.014038,347.333740 688.035278,355.499908 
	C688.068176,368.166901 688.437622,380.833130 688.464294,393.500061 
	C688.482849,402.333038 687.695496,411.189178 688.116272,419.994446 
	C688.674255,431.671295 688.343994,443.333649 688.445312,455.000488 
	C688.472778,458.164001 687.515198,461.339813 687.579407,464.498383 
	C687.662415,468.580322 685.203369,469.889771 681.999084,469.936371 
	C669.825012,470.113403 657.662415,469.523254 645.495056,469.168976 
	C634.851990,468.859039 624.157043,469.853363 613.503540,470.554199 
	C606.970093,470.984009 600.483337,471.986298 593.987854,472.915131 
	C576.673645,475.391174 560.112122,480.277496 543.974121,486.937286 
	C535.071045,490.611389 526.920532,495.272827 520.000000,502.000000 
"/>
<path fill="none" opacity="1.000000" stroke="#000000" stroke-linecap="round" stroke-linejoin="round" stroke-width="13.000000"
	d="
M517.000000,652.000000 
	C517.000000,649.500000 517.354004,646.939453 516.938721,644.510498 
	C515.139099,633.984619 507.382599,626.951660 495.491272,626.125488 
	C485.012604,625.397583 474.574341,625.670288 464.958496,631.430725 
	C449.110687,640.924500 440.295746,654.439697 438.903381,672.992737 
	C438.341248,680.482483 438.558105,687.815735 440.547699,694.986755 
	C445.554077,713.030762 456.063049,725.839355 474.993652,730.525574 
	C487.489105,733.618835 499.153992,731.991516 509.994904,724.992126 
	C516.351135,720.888184 521.158447,715.785461 520.750000,707.500000 
"/>
<path fill="none" opacity="1.000000" stroke="#000000" stroke-linecap="round" stroke-linejoin="round" stroke-width="2.000000"
	d="
M677.500000,223.500000 
	C677.500000,301.166656 677.500000,378.833344 677.500000,456.500000 
"/>
<path fill="none" opacity="1.000000" stroke="#000000" stroke-linecap="round" stroke-linejoin="round" stroke-width="11.000000"
	d="
M106.000000,725.500000 
	C110.023453,729.468445 114.808617,731.408386 120.500298,731.004211 
	C128.323700,730.448547 136.129929,731.435364 144.027786,730.173950 
	C154.805069,728.452576 163.602707,723.589111 170.958786,715.960266 
	C181.817093,704.699341 185.727127,690.920654 185.033997,675.498474 
	C184.018936,652.913147 172.508316,637.891235 151.964706,629.587341 
	C144.211029,626.453247 135.781265,626.315491 127.502197,626.571045 
	C122.141777,626.736572 116.604576,625.208618 111.431442,628.388489 
	C109.653336,629.481445 107.971535,630.554565 106.500000,632.000000 
"/>
<path fill="none" opacity="1.000000" stroke="#000000" stroke-linecap="round" stroke-linejoin="round" stroke-width="17.000000"
	d="
M332.000000,478.500000 
	C336.575317,478.443665 340.613708,476.658173 344.491669,474.485107 
	C351.572601,470.517181 360.070251,470.371765 367.046539,466.075592 
	C367.697144,465.674927 369.121277,466.098938 369.978149,466.542267 
	C373.014709,468.113190 376.256287,468.199585 379.498169,467.973785 
	C391.537109,467.135315 403.590454,467.658386 415.483704,469.131653 
	C442.445831,472.471741 468.577148,479.063599 492.428711,492.625397 
	C496.434235,494.902954 499.500000,498.833344 503.000000,502.000000 
"/>
<path fill="none" opacity="1.000000" stroke="#000000" stroke-linecap="round" stroke-linejoin="round" stroke-width="2.000000"
	d="
M698.500000,272.500000 
	C698.500000,315.166656 698.500000,357.833344 698.500000,400.500000 
"/>
<path fill="none" opacity="1.000000" stroke="#000000" stroke-linecap="round" stroke-linejoin="round" stroke-width="21.000000"
	d="
M86.500000,732.500000 
	C93.033318,732.541626 98.629189,729.843140 103.996284,726.494019 
	C105.083092,725.815796 105.627304,724.965149 105.566116,723.497253 
	C105.476242,721.341248 105.975342,719.166870 105.978294,717.000000 
	C106.012306,692.000000 106.000000,667.000000 106.000000,642.000000 
	C106.000000,631.638550 103.913681,628.877380 93.991440,626.536316 
	C91.548767,625.959961 89.000008,625.833313 86.500008,625.499939 
"/>
<path fill="none" opacity="1.000000" stroke="#000000" stroke-linecap="round" stroke-linejoin="round" stroke-width="2.000000"
	d="
M704.500000,249.500000 
	C704.500000,284.833344 704.500000,320.166656 704.500000,355.500000 
"/>
<path fill="none" opacity="1.000000" stroke="#000000" stroke-linecap="round" stroke-linejoin="round" stroke-width="17.000000"
	d="
M653.500000,271.500000 
	C635.128601,271.119537 616.755920,271.453979 598.511536,273.598083 
	C581.524475,275.594391 564.765686,279.010803 548.500000,284.500000 
"/>
<path fill="none" opacity="1.000000" stroke="#000000" stroke-linecap="round" stroke-linejoin="round" stroke-width="17.000000"
	d="
M653.500000,319.500000 
	C646.333313,319.500000 639.165222,319.406067 632.000244,319.516754 
	C605.219177,319.930359 578.718018,322.436066 553.008179,330.526031 
	C550.353577,331.361328 547.733459,331.712708 545.000000,331.250000 
"/>
<path fill="none" opacity="1.000000" stroke="#000000" stroke-linecap="round" stroke-linejoin="round" stroke-width="8.000000"
	d="
M911.500000,692.000000 
	C897.131775,691.787781 884.264343,696.115784 873.023438,705.029541 
	C867.280273,709.583740 865.692444,716.372131 868.496155,722.501770 
	C871.047729,728.080078 876.173279,730.185120 881.520630,730.828491 
	C886.903748,731.476196 892.314941,730.327148 897.015015,727.021301 
	C901.488342,723.875061 906.546143,722.631470 912.000000,723.000000 
"/>
<path fill="none" opacity="1.000000" stroke="#000000" stroke-linecap="round" stroke-linejoin="round" stroke-width="8.000000"
	d="
M680.500000,691.500000 
	C667.373230,692.119629 655.317932,695.813171 644.462036,703.445984 
	C639.110474,707.208618 636.104126,712.309143 636.700500,718.480652 
	C637.279663,724.472778 641.560547,728.495667 647.513306,729.945435 
	C654.000977,731.525452 660.492920,730.422180 665.894165,726.840454 
	C670.670654,723.672974 675.623291,722.744263 681.000000,722.500000 
"/>
<path fill="none" opacity="1.000000" stroke="#000000" stroke-linecap="round" stroke-linejoin="round" stroke-width="2.000000"
	d="
M704.500000,361.500000 
	C704.500000,393.833344 704.500000,426.166656 704.500000,458.500000 
"/>
<path fill="none" opacity="1.000000" stroke="#000000" stroke-linecap="round" stroke-linejoin="round" stroke-width="17.000000"
	d="
M511.500000,243.500000 
	C512.638123,314.831055 511.732330,386.166901 511.925781,457.500214 
	C511.943817,464.156036 512.727539,470.859863 511.500000,477.500000 
"/>
<path fill="none" opacity="1.000000" stroke="#000000" stroke-linecap="round" stroke-linejoin="round" stroke-width="18.000000"
	d="
M651.000000,367.500000 
	C642.833313,367.500000 634.665833,367.575745 626.500183,367.485931 
	C601.291626,367.208649 576.673706,371.084015 552.525330,378.087433 
	C550.146790,378.777252 547.890930,379.070007 545.500000,379.000000 
"/>
<path fill="none" opacity="1.000000" stroke="#000000" stroke-linecap="round" stroke-linejoin="round" stroke-width="18.000000"
	d="
M652.500000,416.750000 
	C639.688110,418.101654 626.832825,417.230042 614.000244,417.510254 
	C593.249390,417.963318 572.867554,420.807098 552.983154,426.945496 
	C550.938843,427.576599 548.758179,428.292847 546.500000,427.750000 
"/>
<path fill="none" opacity="1.000000" stroke="#000000" stroke-linecap="round" stroke-linejoin="round" stroke-width="20.000000"
	d="
M702.500000,729.000000 
	C699.666687,729.333313 696.841492,729.798767 693.998413,729.974487 
	C686.479797,730.439270 680.890503,727.145935 681.338379,718.491638 
	C681.974915,706.191284 681.309082,693.829468 681.555786,681.501099 
	C681.784973,670.044922 676.864868,666.346436 668.482178,663.045288 
	C658.552368,659.134766 647.590637,662.125854 640.964478,669.969971 
	C638.805481,672.525818 639.310730,676.360596 636.500000,678.500000 
"/>
<path fill="none" opacity="1.000000" stroke="#000000" stroke-linecap="round" stroke-linejoin="round" stroke-width="21.000000"
	d="
M420.500000,727.750000 
	C414.607727,731.071045 408.641296,730.797913 404.502472,726.997314 
	C402.447906,725.110474 401.586243,723.212036 401.802734,719.986755 
	C402.381805,711.358948 402.000000,702.666687 402.000000,694.000000 
	C402.000000,689.500000 401.965759,684.999695 402.007385,680.500061 
	C402.084473,672.170349 398.089996,666.478271 390.480225,663.551392 
	C381.404480,660.060608 372.563110,660.939270 364.550293,666.571533 
	C361.753998,668.537170 359.368805,671.345398 359.072510,675.005859 
	C358.846527,677.797852 354.899292,678.766357 356.000000,682.000000 
"/>
<path fill="none" opacity="1.000000" stroke="#000000" stroke-linecap="round" stroke-linejoin="round" stroke-width="21.000000"
	d="
M271.500000,671.500000 
	C277.347198,671.943054 282.164673,670.070801 287.120605,666.676086 
	C295.335419,661.048950 304.706268,661.114807 313.433075,665.629333 
	C319.916992,668.983582 321.841736,675.617554 321.945496,682.500793 
	C322.136444,695.164612 322.221100,707.839294 321.879333,720.496765 
	C321.760773,724.887146 323.160706,727.458984 326.976959,729.297852 
	C330.348785,730.922607 333.662109,732.508301 337.500000,732.500000 
"/>
<path fill="none" opacity="1.000000" stroke="#000000" stroke-linecap="round" stroke-linejoin="round" stroke-width="21.000000"
	d="
M551.500000,671.500000 
	C553.426453,670.450745 555.510742,671.008606 557.498718,671.054688 
	C560.235291,671.118042 562.363525,670.366699 564.554626,668.566467 
	C572.491699,662.045654 581.479980,661.009766 590.990662,664.525208 
	C598.599182,667.337463 600.906555,673.617126 600.969971,681.000244 
	C601.078674,693.666016 601.433228,706.354370 600.818604,718.991150 
	C600.507568,725.385010 603.509949,728.207031 608.479065,730.544434 
	C611.536377,731.982605 614.826111,732.194031 618.000000,733.000000 
"/>
<path fill="none" opacity="1.000000" stroke="#000000" stroke-linecap="round" stroke-linejoin="round" stroke-width="9.000000"
	d="
M857.000000,660.000000 
	C855.770569,660.749084 854.331116,660.697632 853.017883,661.064148 
	C849.006592,662.183594 846.782349,664.133240 845.173523,668.889587 
	C840.055176,684.021118 833.519287,698.674500 827.488770,713.495483 
	C825.549377,718.261841 821.692932,720.891724 817.000000,722.500000 
"/>
<path fill="none" opacity="1.000000" stroke="#000000" stroke-linecap="round" stroke-linejoin="round" stroke-width="19.000000"
	d="
M775.000000,660.750000 
	C781.693237,660.425659 787.019775,663.915894 792.510498,666.981201 
	C793.564453,667.569458 793.666138,668.500549 794.046875,669.481812 
	C799.812561,684.341370 805.658936,699.169739 811.519104,713.992432 
	C811.871643,714.884094 812.442261,715.708313 813.008789,716.493652 
	C819.707153,725.779663 817.266968,735.573914 813.797119,744.924744 
	C811.996582,749.776917 809.546997,754.549561 805.666748,758.657471 
	C800.420959,764.211243 794.285034,764.927490 787.500000,765.017029 
	C787.500000,762.833313 787.500000,760.916687 787.500000,759.000000 
"/>
<path fill="none" opacity="1.000000" stroke="#000000" stroke-linecap="round" stroke-linejoin="round" stroke-width="20.000000"
	d="
M254.000000,665.000000 
	C258.311981,664.289062 262.421783,665.483582 266.484955,666.557007 
	C269.866180,667.450256 271.246765,670.022583 271.005035,673.500366 
	C269.835876,690.323120 270.864227,707.169189 270.455505,723.998901 
	C270.396515,726.427002 271.808075,727.418091 273.490479,728.514648 
	C278.067017,731.497620 282.989868,733.079712 288.500000,732.500000 
"/>
<path fill="none" opacity="1.000000" stroke="#000000" stroke-linecap="round" stroke-linejoin="round" stroke-width="8.000000"
	d="
M401.000000,692.000000 
	C388.012238,691.596863 376.315826,695.402100 365.460327,702.438782 
	C360.719299,705.511902 357.790192,709.545776 357.043976,715.005981 
	C355.929871,723.157898 364.256378,731.982544 372.480499,730.857544 
	C377.809021,730.128540 383.405487,729.810913 388.064056,726.080017 
	C391.712646,723.158020 396.531342,723.164062 401.000000,722.500000 
"/>
<path fill="none" opacity="1.000000" stroke="#000000" stroke-linecap="round" stroke-linejoin="round" stroke-width="21.000000"
	d="
M555.750000,619.000000 
	C550.027832,623.983887 549.560913,630.465149 549.902588,637.504700 
	C550.314209,645.984741 549.477905,654.540344 550.131287,662.989868 
	C550.959351,673.698547 549.464172,684.325378 549.946960,695.002380 
	C550.368408,704.324219 550.475220,713.667480 550.421570,722.999573 
	C550.403259,726.178650 552.523987,727.176758 554.510803,728.483521 
	C559.049866,731.468811 564.080261,732.740601 569.500000,732.500000 
"/>
<path fill="none" opacity="1.000000" stroke="#000000" stroke-linecap="round" stroke-linejoin="round" stroke-width="21.000000"
	d="
M731.250000,661.500000 
	C727.118408,665.394836 726.769287,669.992188 727.338684,675.516602 
	C728.878540,690.458069 727.881409,705.500916 727.902832,720.500122 
	C727.908508,724.464355 728.719482,727.249878 732.476318,729.049377 
	C735.859192,730.669800 739.155701,732.519226 742.998474,732.431763 
	C744.610779,732.395142 745.712158,733.187744 747.000000,733.750000 
"/>
<path fill="none" opacity="1.000000" stroke="#000000" stroke-linecap="round" stroke-linejoin="round" stroke-width="2.000000"
	d="
M357.500000,313.500000 
	C357.500000,329.166656 357.500000,344.833344 357.500000,360.500000 
"/>
<path fill="none" opacity="1.000000" stroke="#000000" stroke-linecap="round" stroke-linejoin="round" stroke-width="2.000000"
	d="
M567.500000,521.500000 
	C559.000000,521.500000 550.500000,521.500000 541.500000,521.500000 
	C541.500000,527.824585 541.500000,534.162292 541.500000,540.500000 
"/>
<path fill="none" opacity="1.000000" stroke="#000000" stroke-linecap="round" stroke-linejoin="round" stroke-width="21.000000"
	d="
M230.750000,661.000000 
	C225.871124,665.156738 225.736328,670.623108 225.914780,676.502563 
	C226.344467,690.661316 227.112457,704.885254 226.173462,718.978271 
	C225.699280,726.094971 229.016922,728.368591 234.016693,730.460083 
	C237.331482,731.846741 240.795044,732.909302 244.500000,732.500000 
"/>
<path fill="none" opacity="1.000000" stroke="#000000" stroke-linecap="round" stroke-linejoin="round" stroke-width="2.000000"
	d="
M357.500000,390.500000 
	C357.500000,403.833344 357.500000,417.166656 357.500000,430.500000 
"/>
<path fill="none" opacity="1.000000" stroke="#000000" stroke-linecap="round" stroke-linejoin="round" stroke-width="2.000000"
	d="
M357.500000,233.500000 
	C357.500000,246.500000 357.500000,259.500000 357.500000,272.500000 
"/>
<path fill="none" opacity="1.000000" stroke="#000000" stroke-linecap="round" stroke-linejoin="round" stroke-width="2.000000"
	d="
M698.500000,409.500000 
	C698.500000,422.500000 698.500000,435.500000 698.500000,448.500000 
"/>
<path fill="none" opacity="1.000000" stroke="#000000" stroke-linecap="round" stroke-linejoin="round" stroke-width="20.000000"
	d="
M866.500000,681.000000 
	C869.141846,674.669556 871.473572,668.280151 877.961121,664.434448 
	C886.737549,659.231750 902.271362,661.065796 908.950256,669.041626 
	C911.637756,672.251099 912.522339,676.445618 912.421631,680.498047 
	C912.086243,693.998535 913.195068,707.508728 912.032532,721.002808 
	C911.679932,725.096252 915.108093,727.028076 917.500000,729.500000 
"/>
<path fill="none" opacity="1.000000" stroke="#000000" stroke-linecap="round" stroke-linejoin="round" stroke-width="13.000000"
	d="
M510.000000,528.500000 
	C501.993286,535.672180 498.485504,545.474121 494.493652,554.997314 
	C493.368530,557.681458 492.166656,560.333313 490.999969,563.000000 
"/>
<path fill="none" opacity="1.000000" stroke="#000000" stroke-linecap="round" stroke-linejoin="round" stroke-width="2.000000"
	d="
M377.500000,246.500000 
	C377.500000,257.833344 377.500000,269.166656 377.500000,280.500000 
"/>
<path fill="none" opacity="1.000000" stroke="#000000" stroke-linecap="round" stroke-linejoin="round" stroke-width="6.000000"
	d="
M760.500000,673.500000 
	C761.017822,666.104919 756.199768,662.559509 749.515991,665.535889 
	C747.413391,666.472229 744.767578,667.354126 743.633545,669.087341 
	C739.807129,674.935364 733.721802,674.895935 728.000000,676.000000 
"/>
<path fill="none" opacity="1.000000" stroke="#000000" stroke-linecap="round" stroke-linejoin="round" stroke-width="2.000000"
	d="
M562.500000,679.500000 
	C562.500000,689.166687 562.500000,698.833313 562.500000,708.500000 
"/>
<path fill="none" opacity="1.000000" stroke="#000000" stroke-linecap="round" stroke-linejoin="round" stroke-width="2.000000"
	d="
M118.500000,643.500000 
	C118.500000,652.500000 118.500000,661.500000 118.500000,670.500000 
"/>
<path fill="none" opacity="1.000000" stroke="#000000" stroke-linecap="round" stroke-linejoin="round" stroke-width="2.000000"
	d="
M538.500000,666.500000 
	C538.500000,673.833313 538.500000,681.166687 538.500000,688.500000 
"/>
<path fill="none" opacity="1.000000" stroke="#000000" stroke-linecap="round" stroke-linejoin="round" stroke-width="2.000000"
	d="
M357.500000,276.500000 
	C357.500000,283.166656 357.500000,289.833344 357.500000,296.500000 
"/>
<path fill="none" opacity="1.000000" stroke="#000000" stroke-linecap="round" stroke-linejoin="round" stroke-width="2.000000"
	d="
M377.500000,224.500000 
	C377.500000,230.833328 377.500000,237.166672 377.500000,243.500000 
"/>
<path fill="none" opacity="1.000000" stroke="#000000" stroke-linecap="round" stroke-linejoin="round" stroke-width="8.000000"
	d="
M270.500000,726.500000 
	C265.115997,729.784241 259.863098,733.467407 253.000000,732.250000 
"/>
<path fill="none" opacity="1.000000" stroke="#000000" stroke-linecap="round" stroke-linejoin="round" stroke-width="8.000000"
	d="
M550.000000,726.000000 
	C545.154968,730.328735 539.268799,732.128967 533.000000,733.000000 
"/>
<path fill="none" opacity="1.000000" stroke="#000000" stroke-linecap="round" stroke-linejoin="round" stroke-width="8.000000"
	d="
M224.500000,727.000000 
	C219.966843,732.131226 213.574402,732.399719 207.500000,733.500000 
"/>
<path fill="none" opacity="1.000000" stroke="#000000" stroke-linecap="round" stroke-linejoin="round" stroke-width="8.000000"
	d="
M727.750000,726.000000 
	C722.303772,728.972778 717.301514,733.123840 710.500000,732.500000 
"/>
<path fill="none" opacity="1.000000" stroke="#000000" stroke-linecap="round" stroke-linejoin="round" stroke-width="8.000000"
	d="
M322.000000,726.000000 
	C317.165985,729.474609 312.078278,732.369446 306.000000,733.000000 
"/>
<path fill="none" opacity="1.000000" stroke="#000000" stroke-linecap="round" stroke-linejoin="round" stroke-width="8.000000"
	d="
M225.000000,668.000000 
	C219.756104,666.523010 214.795578,663.534729 209.000000,665.000000 
"/>
<path fill="none" opacity="1.000000" stroke="#000000" stroke-linecap="round" stroke-linejoin="round" stroke-width="7.000000"
	d="
M809.000000,660.000000 
	C802.564392,659.877502 798.328125,664.300354 793.500000,667.500000 
"/>
<path fill="none" opacity="1.000000" stroke="#000000" stroke-linecap="round" stroke-linejoin="round" stroke-width="6.000000"
	d="
M227.000000,631.500000 
	C225.209351,631.198669 225.494064,632.442200 225.497040,633.500000 
	C225.505463,636.500000 225.500000,639.500000 225.500000,642.500000 
"/>
</svg>